name rise32.9588peak41.5061fall63.4684.mot
datacolumns 19
datarows 21
range 21.83658800000000 21.86991900000000
endheader
time	ground_force1_vx	ground_force1_vy	ground_force1_vz	ground_force1_px	ground_force1_py	ground_force1_pz	ground_force2_vx	ground_force2_vy	ground_force2_vz	ground_force2_px	ground_force2_py	ground_force2_pz	ground_torque1_x	ground_torque1_y	ground_torque1_z	ground_torque2_x	ground_torque2_y	ground_torque2_z	
21.83658800000000	63.75814200000000	767.41569400000003	47.43234800000000	0.28414100000000	0.00000000000000	0.09125200000000	0.00000000000000	0.00000000000000	0.00000000000000	0.00000000000000	0.00000000000000	0.00000000000000	0.00000000000000	15.35619200000000	0.00000000000000	0.00000000000000	0.00000000000000	0.00000000000000	
21.83825000000000	63.08826800000000	769.80309199999999	47.46996400000000	0.28335100000000	0.00000000000000	0.09124200000000	0.00000000000000	0.00000000000000	0.00000000000000	0.00000000000000	0.00000000000000	0.00000000000000	0.00000000000000	15.37985600000000	0.00000000000000	0.00000000000000	0.00000000000000	0.00000000000000	
21.83991600000000	62.41481200000000	772.05583100000001	47.50899300000000	0.28257600000000	0.00000000000000	0.09123100000000	0.00000000000000	0.00000000000000	0.00000000000000	0.00000000000000	0.00000000000000	0.00000000000000	0.00000000000000	15.40606000000000	0.00000000000000	0.00000000000000	0.00000000000000	0.00000000000000	
21.84158300000000	61.73860000000000	774.17321900000002	47.54966000000000	0.28181300000000	0.00000000000000	0.09122200000000	0.00000000000000	0.00000000000000	0.00000000000000	0.00000000000000	0.00000000000000	0.00000000000000	0.00000000000000	15.43483000000000	0.00000000000000	0.00000000000000	0.00000000000000	0.00000000000000	
21.84324900000000	61.06038600000000	776.15469099999996	47.59210000000000	0.28106300000000	0.00000000000000	0.09121300000000	0.00000000000000	0.00000000000000	0.00000000000000	0.00000000000000	0.00000000000000	0.00000000000000	0.00000000000000	15.46615000000000	0.00000000000000	0.00000000000000	0.00000000000000	0.00000000000000	
21.84492100000000	60.38086300000000	777.99981200000002	47.63637000000000	0.28032200000000	0.00000000000000	0.09120600000000	0.00000000000000	0.00000000000000	0.00000000000000	0.00000000000000	0.00000000000000	0.00000000000000	0.00000000000000	15.49995500000000	0.00000000000000	0.00000000000000	0.00000000000000	0.00000000000000	
21.84658400000000	59.70066000000000	779.70829000000003	47.68244300000000	0.27959200000000	0.00000000000000	0.09119900000000	0.00000000000000	0.00000000000000	0.00000000000000	0.00000000000000	0.00000000000000	0.00000000000000	0.00000000000000	15.53614300000000	0.00000000000000	0.00000000000000	0.00000000000000	0.00000000000000	
21.84825100000000	59.02034700000000	781.27998100000002	47.73021800000000	0.27886900000000	0.00000000000000	0.09119300000000	0.00000000000000	0.00000000000000	0.00000000000000	0.00000000000000	0.00000000000000	0.00000000000000	0.00000000000000	15.57457200000000	0.00000000000000	0.00000000000000	0.00000000000000	0.00000000000000	
21.84991600000000	58.34043500000000	782.71489999999994	47.77952200000000	0.27815300000000	0.00000000000000	0.09118800000000	0.00000000000000	0.00000000000000	0.00000000000000	0.00000000000000	0.00000000000000	0.00000000000000	0.00000000000000	15.61506100000000	0.00000000000000	0.00000000000000	0.00000000000000	0.00000000000000	
21.85158000000000	57.66138200000000	784.01322400000004	47.83011500000000	0.27744200000000	0.00000000000000	0.09118400000000	0.00000000000000	0.00000000000000	0.00000000000000	0.00000000000000	0.00000000000000	0.00000000000000	0.00000000000000	15.65739800000000	0.00000000000000	0.00000000000000	0.00000000000000	0.00000000000000	
21.85325300000000	56.98359500000000	785.17530199999999	47.88169500000000	0.27673600000000	0.00000000000000	0.09118200000000	0.00000000000000	0.00000000000000	0.00000000000000	0.00000000000000	0.00000000000000	0.00000000000000	0.00000000000000	15.70133900000000	0.00000000000000	0.00000000000000	0.00000000000000	0.00000000000000	
21.85491700000000	56.30743300000000	786.20165899999995	47.93390100000000	0.27603100000000	0.00000000000000	0.09118000000000	0.00000000000000	0.00000000000000	0.00000000000000	0.00000000000000	0.00000000000000	0.00000000000000	0.00000000000000	15.74661000000000	0.00000000000000	0.00000000000000	0.00000000000000	0.00000000000000	
21.85658100000000	55.63321100000000	787.09299799999997	47.98632400000000	0.27532800000000	0.00000000000000	0.09117900000000	0.00000000000000	0.00000000000000	0.00000000000000	0.00000000000000	0.00000000000000	0.00000000000000	0.00000000000000	15.79291500000000	0.00000000000000	0.00000000000000	0.00000000000000	0.00000000000000	
21.85825400000000	54.96120300000000	787.85020999999995	48.03850600000000	0.27462500000000	0.00000000000000	0.09117900000000	0.00000000000000	0.00000000000000	0.00000000000000	0.00000000000000	0.00000000000000	0.00000000000000	0.00000000000000	15.83993400000000	0.00000000000000	0.00000000000000	0.00000000000000	0.00000000000000	
21.85991800000000	54.29164900000000	788.47437300000001	48.08995200000000	0.27391900000000	0.00000000000000	0.09118000000000	0.00000000000000	0.00000000000000	0.00000000000000	0.00000000000000	0.00000000000000	0.00000000000000	0.00000000000000	15.88732800000000	0.00000000000000	0.00000000000000	0.00000000000000	0.00000000000000	
21.86158800000000	53.62475300000000	788.96675400000004	48.14013100000000	0.27321100000000	0.00000000000000	0.09118300000000	0.00000000000000	0.00000000000000	0.00000000000000	0.00000000000000	0.00000000000000	0.00000000000000	0.00000000000000	15.93474400000000	0.00000000000000	0.00000000000000	0.00000000000000	0.00000000000000	
21.86325000000000	52.96069200000000	789.32881299999997	48.18848600000000	0.27249800000000	0.00000000000000	0.09118600000000	0.00000000000000	0.00000000000000	0.00000000000000	0.00000000000000	0.00000000000000	0.00000000000000	0.00000000000000	15.98181700000000	0.00000000000000	0.00000000000000	0.00000000000000	0.00000000000000	
21.86492000000000	52.29961900000000	789.56220299999995	48.23443500000000	0.27177900000000	0.00000000000000	0.09119000000000	0.00000000000000	0.00000000000000	0.00000000000000	0.00000000000000	0.00000000000000	0.00000000000000	0.00000000000000	16.02817100000000	0.00000000000000	0.00000000000000	0.00000000000000	0.00000000000000	
21.86658600000000	51.64166300000000	789.66876999999999	48.27738400000000	0.27105400000000	0.00000000000000	0.09119600000000	0.00000000000000	0.00000000000000	0.00000000000000	0.00000000000000	0.00000000000000	0.00000000000000	0.00000000000000	16.07342500000000	0.00000000000000	0.00000000000000	0.00000000000000	0.00000000000000	
21.86825400000000	50.98693800000000	789.65054999999995	48.31672600000000	0.27032000000000	0.00000000000000	0.09120200000000	0.00000000000000	0.00000000000000	0.00000000000000	0.00000000000000	0.00000000000000	0.00000000000000	0.00000000000000	16.11719700000000	0.00000000000000	0.00000000000000	0.00000000000000	0.00000000000000	
21.86991900000000	50.33554400000000	789.50977000000000	48.35185300000000	0.26957600000000	0.00000000000000	0.09120900000000	0.00000000000000	0.00000000000000	0.00000000000000	0.00000000000000	0.00000000000000	0.00000000000000	0.00000000000000	16.15910400000000	0.00000000000000	0.00000000000000	0.00000000000000	0.00000000000000	
